Coordinates
version=1
nRows=19
nColumns=24
inDegrees=yes

Units are S.I. units (second, meters, Newtons, ...)
Angles are in degrees.

endheader
time	pelvis_tilt	pelvis_list	pelvis_rotation	pelvis_tx	pelvis_ty	pelvis_tz	hip_flexion_r	hip_adduction_r	hip_rotation_r	knee_angle_r	ankle_angle_r	subtalar_angle_r	mtp_angle_r	hip_flexion_l	hip_adduction_l	hip_rotation_l	knee_angle_l	ankle_angle_l	subtalar_angle_l	mtp_angle_l	lumbar_extension	lumbar_bending	lumbar_rotation
      3.78500000	    -10.24101777	     -3.51872707	      3.08317632	     -1.89696724	     -0.04971366	     -0.34117552	     38.54607635	      0.32847025	     -4.00642415	    -13.45442305	      0.88561682	      7.69851831	     11.91619849	     -3.89388531	     -1.51891615	      6.25769935	    -20.93502604	     24.93907287	     19.87192558	    -14.29983798	      8.33595124	      0.74992308	    -15.14753963
      3.79000000	    -10.37770816	     -3.81597495	      3.25185489	     -1.88956689	     -0.05099457	     -0.34055790	     38.86227873	      0.54963566	     -4.19016249	    -14.50466018	      0.12162110	      7.44698705	     11.76994870	     -3.74510434	     -2.03077216	      5.86051971	    -21.88452980	     24.87217763	     20.91839742	    -13.82155725	      8.59545442	      1.06957766	    -15.47966084
      3.79500000	    -10.45336920	     -4.14605739	      3.33789797	     -1.88212645	     -0.05211417	     -0.33982790	     39.09898664	      0.86672687	     -4.29318781	    -15.51209416	     -0.88502797	      6.95716509	     11.73521109	     -3.65953435	     -2.60046230	      5.32800436	    -22.83209907	     24.66818004	     22.01563711	    -13.14678522	      8.79061727	      1.44597489	    -15.71956174
      3.80000000	    -10.56715516	     -4.56247690	      3.44547408	     -1.87465320	     -0.05314128	     -0.33916832	     39.36183753	      1.22809892	     -4.53146642	    -16.49699428	     -1.98966134	      6.48265033	     11.65404017	     -3.48632811	     -3.26386352	      4.84926575	    -23.84314879	     24.37517452	     23.04293123	    -12.45230578	      9.03794354	      1.91505225	    -15.98413604
      3.80500000	    -10.67175703	     -4.95160105	      3.44353892	     -1.86721463	     -0.05407011	     -0.33830610	     39.64047254	      1.64274450	     -4.68902447	    -17.50455663	     -3.20263487	      5.86627248	     11.53784097	     -3.29813394	     -3.95059031	      4.06370883	    -24.88922203	     23.95228429	     24.34426868	    -11.52035059	      9.26120396	      2.36786128	    -16.12229361
      3.81000000	    -10.67035902	     -5.31347178	      3.27554981	     -1.85962617	     -0.05465665	     -0.33723477	     39.76066919	      2.18279247	     -4.54765632	    -18.42709057	     -4.57545133	      4.92007009	     11.34493622	     -3.33869154	     -4.60980864	      3.22767713	    -25.63792246	     22.69324214	     25.35581680	     -8.61721194	      9.37334972	      2.83202062	    -16.07285557
      3.81500000	    -10.82540572	     -5.71710749	      3.37277893	     -1.85234244	     -0.05541328	     -0.33650472	     40.10916470	      2.50332722	     -4.94999964	    -19.48778910	     -5.58473944	      4.53521768	     11.04285911	     -2.93803780	     -5.35738949	      2.48164495	    -26.89685893	     22.09395650	     26.80924447	     -7.75542111	      9.62978421	      3.27365422	    -16.35208311
      3.82000000	    -10.84219481	     -6.09307446	      3.11212390	     -1.84477500	     -0.05581423	     -0.33518742	     40.23250924	      3.15576842	     -4.61712966	    -20.42222986	     -6.75666245	      3.40385002	     10.10439765	     -2.87734679	     -6.10843818	      1.39888838	    -27.79899057	     20.70136212	     28.11233462	     -5.06584892	      9.74574946	      3.75332403	    -16.20755724
      3.82500000	    -10.90397907	     -6.45103908	      3.06963974	     -1.83735658	     -0.05618109	     -0.33420620	     40.43290042	      3.57715538	     -4.72562043	    -21.46063827	     -7.46887820	      2.89173603	      9.16895309	     -2.61916575	     -6.86479163	      0.49687545	    -28.83449499	     19.08096402	     29.50673714	     -1.94158726	      9.90118741	      4.17221501	    -16.35472234
      3.83000000	    -10.94250631	     -6.82661235	      2.93958777	     -1.82985987	     -0.05644838	     -0.33307779	     40.56625264	      4.08851988	     -4.75523026	    -22.42671665	     -8.09014956	      2.32217197	      8.29424572	     -2.38125885	     -7.65365467	     -0.41353782	    -29.92591637	     17.44118945	     30.89167310	      0.69360168	     10.03339732	      4.61739187	    -16.38333868
      3.83500000	    -10.97211647	     -7.20269075	      2.77235169	     -1.82228767	     -0.05663591	     -0.33194776	     40.66257963	      4.61523251	     -4.80072104	    -23.37466872	     -8.45943111	      1.92410113	      7.41753067	     -2.14465273	     -8.44818072	     -1.31004756	    -31.00372311	     15.53020255	     32.19326525	      3.66005597	     10.16496514	      5.08391004	    -16.34206335
      3.84000000	    -11.00377403	     -7.55666575	      2.62238599	     -1.81476740	     -0.05674880	     -0.33070078	     40.69745906	      5.16062533	     -4.65623371	    -24.21003181	     -8.79258367	      1.26982309	      6.73226151	     -1.84323349	     -9.24890906	     -2.14596207	    -32.17886859	     13.56877616	     33.56301553	      6.14160972	     10.28784908	      5.49340955	    -16.39689408
      3.84500000	    -10.99794854	     -7.87672638	      2.43725172	     -1.80723003	     -0.05677484	     -0.32947219	     40.67678139	      5.67092447	     -4.62328716	    -25.04971228	     -8.80197688	      0.97619614	      6.21237369	     -1.57666086	     -9.99902588	     -2.90789765	    -33.31192244	     11.27798157	     34.77568718	      9.05990550	     10.36542692	      5.88704319	    -16.35698223
      3.85000000	    -10.99104516	     -8.19325133	      2.24474266	     -1.79973603	     -0.05676717	     -0.32820256	     40.61100621	      6.19440191	     -4.55374591	    -25.81640674	     -8.69400872	      0.69092990	      5.95493432	     -1.26629433	    -10.73620739	     -3.54766559	    -34.50552421	      8.89725624	     35.87478218	     11.66185719	     10.43002010	      6.27050172	    -16.30904508
      3.85500000	    -11.05321524	     -8.60283014	      2.05275275	     -1.79223788	     -0.05684807	     -0.32691694	     40.56882837	      6.80081105	     -4.54884090	    -26.48253891	     -8.53923761	      0.35367937	      5.92979680	     -0.80389594	    -11.56916964	     -4.09255390	    -35.85637594	      6.62402732	     36.81704568	     13.48692332	     10.58450012	      6.74655382	    -16.29135509
      3.86000000	    -10.98875240	     -8.81465700	      1.84985505	     -1.78494402	     -0.05666784	     -0.32560754	     40.37677225	      7.24443814	     -4.44882937	    -27.15720325	     -8.12998186	      0.28951645	      6.08372616	     -0.48974233	    -12.14392135	     -4.45248978	    -37.03490695	      3.85198269	     37.60800066	     16.07637478	     10.54389891	      7.01384510	    -16.19261511
      3.86500000	    -11.01894913	     -9.12456484	      1.63964102	     -1.77762216	     -0.05660719	     -0.32428789	     40.23379538	      7.77187431	     -4.42238033	    -27.73275763	     -7.68206153	      0.20308971	      6.38294970	      0.00116507	    -12.80780386	     -4.71513191	    -38.38469278	      1.32857963	     38.22048085	     17.54893090	     10.62890568	      7.37424604	    -16.13082147
      3.87000000	    -11.01206784	     -9.39357144	      1.40682181	     -1.77053693	     -0.05651048	     -0.32300982	     40.03436061	      8.27360794	     -4.33064602	    -28.27479388	     -7.12581785	      0.27193918	      6.82162042	      0.50983963	    -13.39074563	     -4.89833847	    -39.78211131	     -1.21574759	     38.57327076	     18.87214149	     10.62303509	      7.70971729	    -16.02330451
      3.87500000	    -11.05073613	     -9.69616553	      1.15293895	     -1.76337769	     -0.05636478	     -0.32175623	     39.81550764	      8.81354771	     -4.26518286	    -28.70525797	     -6.56326770	      0.31537153	      7.29508760	      1.08439378	    -13.96074846	     -4.96357016	    -41.18417846	     -3.70704242	     38.60830039	     19.71467482	     10.69204095	      8.08560281	    -15.88851366
